<?xml version="1.0" ?><svg id="Layer_1" style="enable-background:new 0 0 66 66;" version="1.1" viewBox="0 0 66 66" xml:space="preserve" xmlns="http://www.w3.org/2000/svg" xmlns:xlink="http://www.w3.org/1999/xlink"><path d="M62.09,62.02L49.53,3.77C49.26,2.5,48.02,1.5,46.73,1.5c-0.04,0-0.07,0.01-0.1,0.01c-0.02,0-0.03-0.01-0.05-0.01  c-1.3,0-2.53,1-2.81,2.27L43.1,6.89H22.89l-0.67-3.11C21.94,2.5,20.71,1.5,19.41,1.5c-0.03,0-0.06,0.01-0.09,0.01  c-0.02,0-0.03-0.01-0.04-0.01c-1.3,0-2.53,1-2.81,2.27L3.91,62.02c-0.14,0.65-0.01,1.28,0.38,1.75c0.38,0.47,0.96,0.73,1.62,0.73  c1.3,0,2.53-1,2.81-2.27l0.67-3.11h19.9l0.67,3.11c0.28,1.27,1.51,2.27,2.81,2.27c0.1,0,0.2-0.02,0.3-0.03  c0.05,0.02,0.1,0.03,0.15,0.03c1.3,0,2.53-1,2.81-2.27l0.67-3.11h19.9l0.67,3.11c0.28,1.27,1.51,2.27,2.81,2.27  c0.66,0,1.24-0.26,1.62-0.73C62.1,63.29,62.23,62.67,62.09,62.02z M44.73,4.01l0.62,2.88h-1.23L44.73,4.01z M43.91,7.89h1.66  l0.59,2.76h-2.84L43.91,7.89z M31.88,48.62l-0.59-2.76h22.46l0.59,2.76H31.88z M54.56,49.62l1.02,4.74H37.73l1.02-4.74H54.56z   M37.73,49.62l-1.02,4.74H33.9l1.02-4.74H37.73z M33.9,49.62L33,53.79l-0.9-4.17H33.9z M31.08,44.86l-1.02-4.74h5.89l-1.02,4.74  H31.08z M35.95,44.86l1.02-4.74h2.81l-1.02,4.74H35.95z M39.78,44.86l1.02-4.74h11.72l1.02,4.74H39.78z M29.84,39.13l-0.59-2.76  h22.46l0.59,2.76H29.84z M29.03,35.37l-1.02-4.74h9.98l-1.02,4.74H29.03z M38,35.37l1.02-4.74h2.81l-1.02,4.74H38z M41.82,35.37  l1.02-4.74h7.63l1.02,4.74H41.82z M27.79,29.63l-0.59-2.76h22.46l0.59,2.76H27.79z M26.98,25.87l-1.02-4.74h14.08l-1.02,4.74H26.98z   M40.04,25.87l1.02-4.74h2.81l-1.02,4.74H40.04z M43.87,25.87l1.02-4.74h3.53l1.02,4.74H43.87z M25.75,20.14l-0.59-2.76h22.46  l0.59,2.76H25.75z M24.94,16.38l-1.02-4.74h18.17l-1.02,4.74H24.94z M45.92,16.38l0.74-3.44l0.74,3.44H45.92z M43.11,11.66  C43.11,11.66,43.11,11.66,43.11,11.66l0-0.01h2.81l-1.02,4.74h-2.81L43.11,11.66z M42.89,7.89l-0.59,2.76H23.7L23.1,7.89H42.89z   M9.31,54.75C9.31,54.75,9.31,54.75,9.31,54.75l-1.57,7.27c-0.17,0.8-1.01,1.48-1.83,1.48c-0.36,0-0.66-0.13-0.84-0.36  c-0.19-0.24-0.25-0.56-0.18-0.91l1.14-5.28c0.03-0.07,0.05-0.14,0.05-0.22c0-0.01,0-0.01,0-0.02L17.43,4.06l1.4,6.51  c0,0-4.24,19.68-4.25,19.73l-4.04,18.72L9.31,54.75z M11.65,48.62l0.59-2.76h14.19l0.59,2.76H11.65z M27.25,49.62l1.02,4.74H10.42  l1.02-4.74H27.25z M12.46,44.86l1.02-4.74H25.2l1.02,4.74H12.46z M13.7,39.13l0.59-2.76h10.1l0.59,2.76H13.7z M14.51,35.37  l1.02-4.74h7.63l1.02,4.74H14.51z M15.74,29.63l0.59-2.76h6.01l0.59,2.76H15.74z M16.56,25.87l1.02-4.74h3.53l1.02,4.74H16.56z   M17.79,20.14l0.59-2.76h1.91l0.59,2.76H17.79z M18.6,16.38l0.74-3.44l0.74,3.44H18.6z M9.6,58.11l0.59-2.76h18.28l0.59,2.76H9.6z   M33.62,63.14c-0.19,0.23-0.49,0.36-0.84,0.36c-0.82,0-1.66-0.68-1.83-1.48L18.39,3.77c-0.08-0.35-0.01-0.68,0.18-0.91  c0.19-0.23,0.49-0.36,0.84-0.36c0.82,0,1.66,0.68,1.83,1.48l4.85,22.49c0,0,0,0,0,0l0.81,3.76c0,0,0,0,0,0l1.23,5.73c0,0,0,0,0,0  l0.81,3.76c0,0,0,0.01,0,0.01l1.23,5.72c0,0,0,0,0,0l0.81,3.76c0,0,0,0,0,0.01l1.23,5.73c0,0,0,0,0,0l0.35,1.61l1.22,5.66  C33.87,62.58,33.81,62.9,33.62,63.14z M35.06,62.02c-0.04,0.2-0.13,0.38-0.24,0.56c0-0.18-0.01-0.37-0.05-0.56l-0.63-2.9h1.54  L35.06,62.02z M33.93,58.11l-0.59-2.76H55.8l0.59,2.76H33.93z M60.93,63.14c-0.19,0.23-0.49,0.36-0.84,0.36  c-0.82,0-1.66-0.68-1.83-1.48L45.7,3.77c-0.08-0.35-0.01-0.68,0.18-0.91c0.19-0.23,0.49-0.36,0.84-0.36c0.82,0,1.66,0.68,1.83,1.48  l12.55,58.24C61.19,62.58,61.12,62.9,60.93,63.14z"/></svg>