<?xml version="1.0" ?><svg id="Layer_1" style="enable-background:new 0 0 66 66;" version="1.1" viewBox="0 0 66 66" xml:space="preserve" xmlns="http://www.w3.org/2000/svg" xmlns:xlink="http://www.w3.org/1999/xlink"><g><path d="M44.62,45.63c5.14,0,9.32-4.18,9.32-9.32c0-5.14-4.18-9.32-9.32-9.32c-5.14,0-9.32,4.18-9.32,9.32   C35.29,41.45,39.48,45.63,44.62,45.63z M44.62,27.99c4.59,0,8.32,3.73,8.32,8.32c0,4.59-3.73,8.32-8.32,8.32s-8.32-3.73-8.32-8.32   C36.29,31.72,40.03,27.99,44.62,27.99z"/><path d="M62.75,47.57h-1.68h-0.86c2.39-3.3,3.66-7.16,3.66-11.26c0-5.67-2.48-10.77-6.4-14.29v-6.9c0-3.54-1.38-6.88-3.9-9.4   c-2.52-2.51-5.86-3.89-9.4-3.89c-7.33,0-13.29,5.96-13.29,13.29v7.69c-2.06,2.1-3.65,4.68-4.6,7.62c-0.36,1.11-0.6,2.27-0.75,3.46   c-1.97-0.99-4.18-1.56-6.53-1.56c-8.06,0-14.62,6.56-14.62,14.62v1.1h-0.9c-1.09,0-1.98,0.89-1.98,1.98v7.16   c0,1.09,0.89,1.98,1.98,1.98h1.4h28.23h27.45v3.03c0,1.08,0.88,1.97,1.97,1.97s1.97-0.88,1.97-1.97V49.32   C64.5,48.36,63.71,47.57,62.75,47.57z M62.75,48.57c0.41,0,0.75,0.34,0.75,0.75v8.85h-1.93v-9.6H62.75z M44.16,2.83   c3.28,0,6.37,1.28,8.7,3.59c2.32,2.33,3.6,5.42,3.6,8.7v6.05c-1.04-0.82-2.17-1.52-3.36-2.11v-4.6c0-2.4-0.93-4.64-2.63-6.31   c-1.69-1.69-3.94-2.63-6.31-2.63c-4.92,0-8.93,4.01-8.93,8.94v5.04c-1.2,0.67-2.33,1.46-3.36,2.37v-6.75   C31.87,8.34,37.39,2.83,44.16,2.83z M52.1,18.58c-2.3-0.98-4.83-1.52-7.49-1.52c-2.98,0-5.83,0.69-8.38,1.92v-4.52   c0-4.38,3.56-7.94,7.93-7.94c2.11,0,4.1,0.83,5.61,2.34c1.5,1.48,2.33,3.47,2.33,5.6V18.58z M27.23,30.74   c0.91-2.83,2.45-5.32,4.45-7.32c0.03-0.02,0.06-0.05,0.08-0.08c3.34-3.31,7.91-5.28,12.86-5.28c10.06,0,18.25,8.19,18.25,18.25   c0,4.13-1.35,8.01-3.9,11.26H33.62v-0.62c0-5.32-2.87-9.98-7.14-12.53C26.61,33.15,26.85,31.91,27.23,30.74z M2.5,57.2v-7.16   c0-0.54,0.44-0.98,0.98-0.98h0.9v9.12h-0.9C2.94,58.17,2.5,57.74,2.5,57.2z M5.38,46.96c0-7.51,6.11-13.62,13.62-13.62   s13.62,6.11,13.62,13.62v1.12v10.1H5.38V46.96z M33.62,58.17v-9.6h1.95v1.77c0,0.28,0.22,0.5,0.5,0.5s0.5-0.22,0.5-0.5v-1.77h2.54   v4.26c0,0.28,0.22,0.5,0.5,0.5s0.5-0.22,0.5-0.5v-4.26h2.54v1.77c0,0.28,0.22,0.5,0.5,0.5s0.5-0.22,0.5-0.5v-1.77h2.54v4.26   c0,0.28,0.22,0.5,0.5,0.5s0.5-0.22,0.5-0.5v-4.26h2.54v1.77c0,0.28,0.22,0.5,0.5,0.5s0.5-0.22,0.5-0.5v-1.77h2.54v4.26   c0,0.28,0.22,0.5,0.5,0.5s0.5-0.22,0.5-0.5v-4.26h2.54v1.77c0,0.28,0.22,0.5,0.5,0.5s0.5-0.22,0.5-0.5v-1.77h2.74v9.6H33.62z    M62.53,63.17c-0.53,0-0.97-0.43-0.97-0.97v-3.03h1.93v3.03C63.5,62.74,63.07,63.17,62.53,63.17z"/><path d="M18.99,40.16c-4.27,0-7.75,3.48-7.75,7.76c0,0.03,0,0.07,0,0.1c0,0.02,0,0.03,0,0.05v6.61c0,0.28,0.22,0.5,0.5,0.5h14.51   c0.28,0,0.5-0.22,0.5-0.5v-6.61c0-0.02,0-0.03,0-0.05c0-0.03,0-0.07,0-0.1C26.75,43.64,23.27,40.16,18.99,40.16z M25.75,54.18   H12.24v-6.06c0.01-0.07,0.01-0.14,0-0.2c0-3.73,3.03-6.76,6.75-6.76c3.73,0,6.76,3.03,6.76,6.82c-0.01,0.06-0.01,0.12,0,0.18V54.18   z"/><path d="M19,44.52c-1.88,0-3.41,1.52-3.41,3.41s1.52,3.41,3.41,3.41c1.88,0,3.41-1.52,3.41-3.41S20.88,44.52,19,44.52z"/></g></svg>