<?xml version="1.0" ?><svg id="Layer_1" style="enable-background:new 0 0 66 66;" version="1.1" viewBox="0 0 66 66" xml:space="preserve" xmlns="http://www.w3.org/2000/svg" xmlns:xlink="http://www.w3.org/1999/xlink"><g><path d="M63.44,27.46h-9.4H34.59c-0.28,0-0.5,0.22-0.5,0.5v8.26h-9.44c-0.28,0-0.5,0.22-0.5,0.5v8.26h-8.9   c-0.28,0-0.5,0.22-0.5,0.5v8.26H5.03c-0.28,0-0.5,0.22-0.5,0.5v8.76c0,0.28,0.22,0.5,0.5,0.5h19.4h0.11h19.4h19.51   c0.28,0,0.5-0.22,0.5-0.5v-8.76v-8.76v-8.76v-8.76C63.94,27.69,63.71,27.46,63.44,27.46z M43.93,53.75H35.2v-7.76h8.79h0.11h9.44   v7.76H43.93z M25.03,54.75h18.4v7.76h-18.4V54.75z M62.94,37.23v7.76h-8.9H44.6v-7.76H62.94z M54.54,53.75v-7.76h8.4v7.76H54.54z    M62.94,36.23h-8.4v-7.76h8.4V36.23z M35.09,28.46h18.45v7.76H44.1h-0.11h-8.9V28.46z M25.15,37.23h18.34v7.76H34.7h-9.55V37.23z    M5.53,54.75h18.4v7.76H5.53V54.75z M24.42,53.75h-8.67v-7.76h8.9h9.55v7.76h-9.67H24.42z M44.43,62.52v-7.76h9.61h0.49h8.41v7.76   H44.43z"/><path d="M7.37,25.64l11.46-4.78c1.25-0.52,2.07-1.63,2.29-2.87l2.58-1.08l2.79,6.69c0.39,0.93,1.21,1.57,2.21,1.72   c0.14,0.02,0.28,0.03,0.42,0.03c0.85,0,1.64-0.37,2.19-1.04L43.84,8.99c0.68-0.83,0.83-1.91,0.42-2.9   c-0.41-0.99-1.29-1.64-2.36-1.74L22.21,2.5c-0.99-0.09-1.96,0.33-2.56,1.14c-0.6,0.81-0.72,1.85-0.33,2.78l2.94,7.05l-2.39,1   c-0.32-0.28-0.67-0.51-1.07-0.68c-0.95-0.39-1.99-0.39-2.93,0.01L4.42,18.58c-1.95,0.81-2.87,3.06-2.06,5.01   c0.39,0.94,1.13,1.68,2.08,2.07c0.47,0.19,0.96,0.29,1.46,0.29C6.39,25.94,6.89,25.84,7.37,25.64z M29.06,11.71   c0.44-0.18,0.95,0.03,1.13,0.46c0.18,0.44-0.03,0.95-0.46,1.13l-5.95,2.48c0,0,0,0,0,0s0,0,0,0l-2.63,1.1   c-0.04-0.35-0.11-0.7-0.25-1.04c0,0,0,0,0,0c-0.09-0.21-0.2-0.41-0.32-0.59L29.06,11.71z M20.24,6.04c-0.25-0.6-0.17-1.28,0.22-1.8   c0.39-0.53,1.01-0.8,1.66-0.74l19.7,1.86c0.69,0.07,1.26,0.49,1.53,1.13c0.27,0.64,0.16,1.34-0.27,1.88L30.54,23.67   c-0.41,0.51-1.05,0.75-1.69,0.66c-0.65-0.09-1.18-0.51-1.43-1.11l-2.79-6.69l5.49-2.29c0.95-0.4,1.4-1.49,1-2.44   c-0.39-0.95-1.49-1.4-2.44-1l-5.49,2.29L20.24,6.04z M3.28,23.2c-0.6-1.44,0.08-3.1,1.52-3.7l11.46-4.78   c0.35-0.15,0.72-0.22,1.09-0.22c0.36,0,0.73,0.07,1.08,0.21c0.38,0.16,0.71,0.39,0.98,0.68c0.01,0.01,0.01,0.02,0.02,0.02   c0.22,0.24,0.41,0.51,0.54,0.82c0.6,1.44-0.08,3.1-1.52,3.7L6.98,24.72c-0.7,0.29-1.47,0.29-2.17,0.01   C4.12,24.44,3.57,23.9,3.28,23.2z"/></g></svg>