<?xml version="1.0" ?><svg id="Layer_1" style="enable-background:new 0 0 66 66;" version="1.1" viewBox="0 0 66 66" xml:space="preserve" xmlns="http://www.w3.org/2000/svg" xmlns:xlink="http://www.w3.org/1999/xlink"><g><path d="M44.89,47.54c-1.74,0.49-3.15,1.93-3.59,3.67c-0.45,1.77-0.02,3.55,1.18,4.88c1.01,1.11,2.43,1.73,3.92,1.73   c0.27,0,0.54-0.02,0.81-0.06c0,0,0,0,0,0c2.23-0.34,4.02-2.13,4.35-4.36c0.27-1.79-0.37-3.57-1.72-4.75   C48.51,47.46,46.65,47.04,44.89,47.54z M50.57,53.24c-0.27,1.77-1.74,3.26-3.51,3.52c-1.45,0.21-2.88-0.29-3.84-1.35   c-0.97-1.07-1.32-2.52-0.95-3.96c0.36-1.4,1.49-2.56,2.89-2.95c0.41-0.12,0.83-0.17,1.23-0.17c1.03,0,2,0.36,2.79,1.06   C50.27,50.35,50.79,51.79,50.57,53.24z"/><path d="M55.1,46.03l-7.42-4.28c-0.81-0.47-1.81-0.46-2.61,0l-7.41,4.28c-0.81,0.47-1.31,1.33-1.31,2.26v8.57   c0,0.93,0.5,1.8,1.31,2.26l7.41,4.28c0.4,0.23,0.86,0.35,1.31,0.35c0.45,0,0.9-0.12,1.31-0.35l7.42-4.28   c0.81-0.47,1.31-1.33,1.31-2.27v-8.57C56.4,47.36,55.9,46.49,55.1,46.03z M55.4,56.86c0,0.58-0.31,1.11-0.81,1.4l-7.42,4.28   c-0.5,0.29-1.12,0.29-1.61,0l-7.41-4.28c-0.5-0.29-0.81-0.82-0.81-1.4v-8.57c0-0.57,0.31-1.11,0.81-1.4l7.41-4.28   c0.25-0.14,0.53-0.22,0.81-0.22c0.28,0,0.56,0.07,0.81,0.22l7.42,4.28c0.5,0.29,0.81,0.82,0.81,1.4V56.86z"/><path d="M63.19,22.81l-7.42-4.28c-0.81-0.47-1.81-0.46-2.61,0l-7.41,4.28c-0.81,0.47-1.31,1.33-1.31,2.26v8.57   c0,0.93,0.5,1.8,1.31,2.26l7.41,4.28c0.4,0.23,0.86,0.35,1.31,0.35c0.45,0,0.9-0.12,1.31-0.35l7.42-4.28   c0.81-0.47,1.31-1.33,1.31-2.27v-8.57C64.5,24.14,64,23.27,63.19,22.81z M63.5,33.64c0,0.58-0.31,1.11-0.81,1.4l-7.42,4.28   c-0.5,0.29-1.12,0.29-1.61,0l-7.41-4.28c-0.5-0.29-0.81-0.82-0.81-1.4v-8.57c0-0.58,0.31-1.11,0.81-1.4l7.41-4.28   c0.5-0.29,1.12-0.29,1.61,0l7.42,4.28c0.5,0.29,0.81,0.82,0.81,1.4V33.64z"/><path d="M52.99,24.32c-1.74,0.49-3.15,1.93-3.59,3.67c-0.45,1.77-0.02,3.55,1.18,4.88c1.01,1.11,2.43,1.73,3.92,1.73   c0.27,0,0.54-0.02,0.81-0.06c0,0,0,0,0,0c2.23-0.34,4.02-2.13,4.35-4.36c0.27-1.79-0.37-3.57-1.72-4.75   C56.6,24.24,54.75,23.82,52.99,24.32z M58.67,30.02c-0.27,1.77-1.74,3.26-3.52,3.52h0c-1.44,0.22-2.88-0.29-3.84-1.35   c-0.97-1.07-1.32-2.52-0.95-3.96c0.36-1.4,1.49-2.56,2.89-2.95c0.41-0.12,0.83-0.17,1.23-0.17c1.03,0,2,0.36,2.79,1.06   C58.37,27.13,58.89,28.57,58.67,30.02z"/><path d="M35.29,13.37c1.73-1.49,2.29-3.91,1.39-6.01l-1.73-4.04C34.48,2.22,33.4,1.5,32.19,1.5h-7.43c-1.66,0-3,1.35-3,3.02   c0,1.36-1.1,2.46-2.46,2.46s-2.46-1.1-2.46-2.48c0-1.66-1.35-3-3-3H6.41c-1.2,0-2.29,0.72-2.76,1.82L1.92,7.36   c-0.9,2.1-0.34,4.52,1.39,6.01l4.53,3.91v5.02c-0.39,0.06-0.76,0.2-1.1,0.42c-0.59,0.4-0.98,1.01-1.12,1.71   c-0.27,1.44,0.68,2.84,2.12,3.11l0.09,0.02v3.83c-0.39,0.06-0.76,0.2-1.1,0.42c-0.59,0.4-0.98,1.01-1.12,1.71   c-0.27,1.44,0.68,2.84,2.12,3.11l0.09,0.02v3.83c-0.39,0.06-0.76,0.2-1.1,0.42c-0.59,0.4-0.98,1.01-1.12,1.71   c-0.27,1.44,0.68,2.84,2.12,3.11l0.09,0.02v3.83c-0.39,0.06-0.76,0.2-1.1,0.42c-0.59,0.4-0.98,1.01-1.12,1.71   c-0.27,1.44,0.68,2.84,2.12,3.11l0.21,0.04c0.31,2.48,1.26,4.82,2.77,6.8l1.09,1.42c0.68,0.88,1.74,1.41,2.85,1.41h9.24   c1.11,0,2.18-0.53,2.85-1.41l1.09-1.42c0.64-0.84,1.17-1.76,1.61-2.74L29.86,59c0.17,0.03,0.33,0.05,0.5,0.05   c0.53,0,1.05-0.16,1.5-0.46c0.59-0.4,0.98-1.01,1.12-1.71c0.13-0.7-0.02-1.41-0.42-2s-1.01-0.98-1.71-1.12l-0.11-0.02   c0.01-0.2,0.02-0.4,0.02-0.6v-3.22c0.39-0.06,0.76-0.21,1.1-0.43c0.59-0.4,0.98-1.01,1.12-1.71c0.13-0.7-0.02-1.41-0.42-2   s-1.01-0.98-1.71-1.12l-0.09-0.02v-3.83c1.08-0.17,2-1,2.21-2.14c0.13-0.7-0.02-1.41-0.42-2s-1.01-0.98-1.71-1.12l-0.09-0.02v-3.83   c1.08-0.17,2-1,2.21-2.14c0.13-0.7-0.02-1.41-0.42-2s-1.01-0.98-1.71-1.12l-0.09-0.02v-9.18L35.29,13.37z M2.84,7.75l1.73-4.04   C4.88,2.98,5.61,2.5,6.41,2.5h7.43c1.1,0,2,0.9,2,2.02c0,1.91,1.55,3.46,3.46,3.46c1.91,0,3.46-1.55,3.46-3.48c0-1.1,0.9-2,2-2   h7.43c0.8,0,1.53,0.48,1.84,1.22l1.73,4.04c0.73,1.7,0.27,3.65-1.13,4.86l-4.57,3.94H8.53l-4.57-3.94   C2.57,11.41,2.12,9.45,2.84,7.75z M27.07,61.06l-1.09,1.42c-0.49,0.64-1.26,1.02-2.06,1.02h-9.24c-0.8,0-1.57-0.38-2.06-1.02   l-1.09-1.42c-1.34-1.75-2.2-3.81-2.53-5.99l19.46,3.67C28.07,59.56,27.62,60.35,27.07,61.06z M31.73,55.44   c0.25,0.37,0.34,0.81,0.26,1.25c-0.08,0.44-0.33,0.82-0.7,1.07c-0.37,0.25-0.81,0.34-1.25,0.26l-22.1-4.17   c-0.44-0.08-0.82-0.33-1.07-0.7c-0.25-0.37-0.34-0.81-0.26-1.25s0.33-0.82,0.7-1.07c0.28-0.19,0.6-0.29,0.94-0.29   c0.03,0,0.05,0.01,0.08,0.01c0.01,0,0.01,0,0.02,0c0,0,0.01,0,0.01,0c0.07,0,0.14,0.01,0.2,0.02l22.1,4.17   C31.1,54.83,31.48,55.07,31.73,55.44z M8.85,49.61v-3.67l20.91,3.94v3.25c0,0.14-0.01,0.28-0.02,0.41L8.85,49.61z M31.73,46.35   c0.25,0.37,0.34,0.81,0.26,1.25c-0.08,0.44-0.33,0.82-0.7,1.07c-0.31,0.21-0.67,0.3-1.03,0.28c0,0-0.01,0-0.01,0   c-0.07,0-0.13,0-0.2-0.02c0,0,0,0,0,0h0l-22.1-4.17c-0.44-0.08-0.82-0.33-1.07-0.7c-0.25-0.37-0.34-0.81-0.26-1.25   s0.33-0.82,0.7-1.07c0.28-0.19,0.6-0.29,0.94-0.29c0.03,0,0.05,0.01,0.08,0.01c0.01,0,0.01,0,0.02,0c0,0,0.01,0,0.01,0   c0.07,0,0.14,0.01,0.2,0.02l22.1,4.17C31.1,45.73,31.48,45.98,31.73,46.35z M8.85,40.52v-3.67l20.91,3.94v3.67L8.85,40.52z    M31.99,38.5c-0.16,0.83-0.91,1.4-1.74,1.34c0,0,0,0,0,0c-0.07,0-0.13,0-0.2-0.02c0,0,0,0,0,0l-22.1-4.17   c-0.44-0.08-0.82-0.33-1.07-0.7c-0.25-0.37-0.34-0.81-0.26-1.25s0.33-0.82,0.7-1.07c0.3-0.21,0.66-0.3,1.02-0.28c0,0,0.01,0,0.01,0   c0,0,0,0,0,0c0.07,0,0.14,0.01,0.21,0.02l22.1,4.17C31.56,36.73,32.16,37.6,31.99,38.5z M8.85,31.43v-3.67l20.91,3.94v3.67   L8.85,31.43z M31.73,28.16c0.25,0.37,0.34,0.81,0.26,1.25c-0.16,0.84-0.92,1.4-1.75,1.34c0,0,0,0,0,0c-0.06,0-0.13,0-0.19-0.02   c0,0,0,0,0,0c0,0,0,0,0,0h0l-22.1-4.17c-0.44-0.08-0.82-0.33-1.07-0.7c-0.25-0.37-0.34-0.81-0.26-1.25s0.33-0.82,0.7-1.07   c0.3-0.21,0.66-0.3,1.02-0.28c0,0,0.01,0,0.01,0c0,0,0,0,0,0c0.07,0,0.14,0.01,0.21,0.02l22.1,4.17   C31.1,27.55,31.48,27.8,31.73,28.16z M8.85,22.33v-4.78h20.91v8.72L8.85,22.33z"/></g></svg>