<?xml version="1.0" ?><svg id="Layer_1" style="enable-background:new 0 0 66 66;" version="1.1" viewBox="0 0 66 66" xml:space="preserve" xmlns="http://www.w3.org/2000/svg" xmlns:xlink="http://www.w3.org/1999/xlink"><g><path d="M28.06,37.82H19.4c-1.2,0-2.18,0.98-2.18,2.18v17.32c0,1.2,0.98,2.18,2.18,2.18h8.65c1.2,0,2.18-0.98,2.18-2.18V40   C30.24,38.8,29.26,37.82,28.06,37.82z M29.24,57.32c0,0.65-0.53,1.18-1.18,1.18H19.4c-0.65,0-1.18-0.53-1.18-1.18V40   c0-0.65,0.53-1.18,1.18-1.18h8.65c0.65,0,1.18,0.53,1.18,1.18V57.32z"/><path d="M46.6,37.82h-8.65c-1.2,0-2.18,0.98-2.18,2.18v17.32c0,1.2,0.98,2.18,2.18,2.18h8.65c1.2,0,2.18-0.98,2.18-2.18V40   C48.78,38.8,47.8,37.82,46.6,37.82z M47.78,57.32c0,0.65-0.53,1.18-1.18,1.18h-8.65c-0.65,0-1.18-0.53-1.18-1.18V40   c0-0.65,0.53-1.18,1.18-1.18h8.65c0.65,0,1.18,0.53,1.18,1.18V57.32z"/><path d="M19.4,27.89H46.6c1.2,0,2.18-0.98,2.18-2.18V8.68c0-1.2-0.98-2.18-2.18-2.18H19.4c-1.2,0-2.18,0.98-2.18,2.18v17.03   C17.22,26.91,18.2,27.89,19.4,27.89z M18.22,8.68c0-0.65,0.53-1.18,1.18-1.18H46.6c0.65,0,1.18,0.53,1.18,1.18v17.03   c0,0.65-0.53,1.18-1.18,1.18H19.4c-0.65,0-1.18-0.53-1.18-1.18V8.68z"/><path d="M47.15,30.37c-1.28,0-2.34,0.92-2.58,2.13h-6.34c-0.28,0-0.5,0.22-0.5,0.5s0.22,0.5,0.5,0.5h6.34   c0.23,1.21,1.3,2.13,2.58,2.13c1.45,0,2.63-1.18,2.63-2.63S48.6,30.37,47.15,30.37z M47.15,34.63c-0.87,0-1.58-0.69-1.62-1.55   c0-0.03,0.02-0.05,0.02-0.08c0-0.03-0.01-0.05-0.02-0.08c0.04-0.86,0.75-1.55,1.62-1.55c0.9,0,1.63,0.73,1.63,1.63   S48.05,34.63,47.15,34.63z"/><path d="M60.02,63.5h-6.25V4.58c0-1.7-1.38-3.08-3.08-3.08H15.3c-1.7,0-3.08,1.38-3.08,3.08V63.5H5.98c-0.28,0-0.5,0.22-0.5,0.5   s0.22,0.5,0.5,0.5h54.05c0.28,0,0.5-0.22,0.5-0.5S60.3,63.5,60.02,63.5z M13.22,4.58c0-1.15,0.93-2.08,2.08-2.08H50.7   c1.15,0,2.08,0.93,2.08,2.08V63.5H13.22V4.58z"/></g></svg>